<mxfile host="app.diagrams.net" modified="2021-04-12T19:54:06.238Z" agent="5.0 (X11; Linux x86_64) AppleWebKit/537.36 (KHTML, like Gecko) Chrome/89.0.4389.90 Safari/537.36" etag="1eLPfViuck9w01uivJQb" version="14.5.10" type="github">
  <diagram name="Page-1" id="52a04d89-c75d-2922-d76d-85b35f80e030">
    <mxGraphModel dx="2164" dy="834" grid="1" gridSize="10" guides="1" tooltips="1" connect="1" arrows="1" fold="1" page="1" pageScale="1" pageWidth="1100" pageHeight="850" background="#ffffff" math="0" shadow="0">
      <root>
        <mxCell id="0" />
        <mxCell id="1" parent="0" />
        <mxCell id="P6Motzl6B2yaUC9tVN_q-74" style="edgeStyle=orthogonalEdgeStyle;rounded=1;jumpStyle=arc;orthogonalLoop=1;jettySize=auto;html=1;exitX=0.5;exitY=1;exitDx=0;exitDy=0;startArrow=oval;startFill=1;endArrow=classic;endFill=1;" parent="1" source="P6Motzl6B2yaUC9tVN_q-71" target="P6Motzl6B2yaUC9tVN_q-69" edge="1">
          <mxGeometry relative="1" as="geometry" />
        </mxCell>
        <mxCell id="P6Motzl6B2yaUC9tVN_q-73" style="edgeStyle=orthogonalEdgeStyle;rounded=1;jumpStyle=arc;orthogonalLoop=1;jettySize=auto;html=1;exitX=0.5;exitY=0;exitDx=0;exitDy=0;entryX=0.5;entryY=1;entryDx=0;entryDy=0;startArrow=oval;startFill=1;endArrow=classic;endFill=1;" parent="1" source="P6Motzl6B2yaUC9tVN_q-71" target="P6Motzl6B2yaUC9tVN_q-68" edge="1">
          <mxGeometry relative="1" as="geometry" />
        </mxCell>
        <mxCell id="kIGBe5cNXjvGODK9YtOb-32" style="edgeStyle=orthogonalEdgeStyle;rounded=1;jumpStyle=arc;orthogonalLoop=1;jettySize=auto;html=1;exitX=0.5;exitY=0;exitDx=0;exitDy=0;entryX=0.5;entryY=1;entryDx=0;entryDy=0;startArrow=oval;startFill=1;endArrow=classic;endFill=1;" edge="1" parent="1" source="kIGBe5cNXjvGODK9YtOb-34" target="kIGBe5cNXjvGODK9YtOb-30">
          <mxGeometry relative="1" as="geometry" />
        </mxCell>
        <mxCell id="kIGBe5cNXjvGODK9YtOb-33" style="edgeStyle=orthogonalEdgeStyle;rounded=1;jumpStyle=arc;orthogonalLoop=1;jettySize=auto;html=1;exitX=0.5;exitY=1;exitDx=0;exitDy=0;startArrow=oval;startFill=1;endArrow=classic;endFill=1;" edge="1" parent="1" source="kIGBe5cNXjvGODK9YtOb-34" target="kIGBe5cNXjvGODK9YtOb-31">
          <mxGeometry relative="1" as="geometry" />
        </mxCell>
        <mxCell id="kIGBe5cNXjvGODK9YtOb-35" style="edgeStyle=orthogonalEdgeStyle;rounded=1;jumpStyle=arc;orthogonalLoop=1;jettySize=auto;html=1;exitX=0.1;exitY=0.5;exitDx=0;exitDy=0;exitPerimeter=0;entryX=1;entryY=0.5;entryDx=0;entryDy=0;startArrow=none;startFill=0;endArrow=oval;endFill=1;" edge="1" parent="1" source="P6Motzl6B2yaUC9tVN_q-77" target="kIGBe5cNXjvGODK9YtOb-34">
          <mxGeometry relative="1" as="geometry">
            <mxPoint x="332" y="760" as="sourcePoint" />
            <mxPoint x="290" y="760" as="targetPoint" />
          </mxGeometry>
        </mxCell>
        <mxCell id="P6Motzl6B2yaUC9tVN_q-17" style="edgeStyle=orthogonalEdgeStyle;rounded=1;orthogonalLoop=1;jettySize=auto;html=1;entryX=0;entryY=0.5;entryDx=0;entryDy=0;jumpStyle=arc;exitX=0.25;exitY=1;exitDx=0;exitDy=0;" parent="1" source="P6Motzl6B2yaUC9tVN_q-24" target="P6Motzl6B2yaUC9tVN_q-14" edge="1">
          <mxGeometry relative="1" as="geometry">
            <mxPoint x="-350" y="300" as="sourcePoint" />
            <Array as="points">
              <mxPoint x="-185" y="640" />
            </Array>
          </mxGeometry>
        </mxCell>
        <mxCell id="P6Motzl6B2yaUC9tVN_q-10" value="Heartbeat" style="rounded=0;whiteSpace=wrap;html=1;" parent="1" vertex="1">
          <mxGeometry x="-170" y="420" width="200" height="40" as="geometry" />
        </mxCell>
        <mxCell id="P6Motzl6B2yaUC9tVN_q-18" style="edgeStyle=orthogonalEdgeStyle;rounded=1;jumpStyle=arc;orthogonalLoop=1;jettySize=auto;html=1;entryX=1;entryY=0.5;entryDx=0;entryDy=0;exitX=1;exitY=0.5;exitDx=0;exitDy=0;startArrow=classic;startFill=1;" parent="1" source="P6Motzl6B2yaUC9tVN_q-21" target="P6Motzl6B2yaUC9tVN_q-27" edge="1">
          <mxGeometry relative="1" as="geometry">
            <mxPoint x="230" y="380" as="sourcePoint" />
            <Array as="points">
              <mxPoint x="100" y="480" />
              <mxPoint x="100" y="720" />
            </Array>
          </mxGeometry>
        </mxCell>
        <mxCell id="P6Motzl6B2yaUC9tVN_q-33" value="Job Execution Instructions" style="edgeLabel;html=1;align=center;verticalAlign=middle;resizable=0;points=[];rotation=90;" parent="P6Motzl6B2yaUC9tVN_q-18" vertex="1" connectable="0">
          <mxGeometry x="-0.1888" y="-2" relative="1" as="geometry">
            <mxPoint y="30" as="offset" />
          </mxGeometry>
        </mxCell>
        <mxCell id="P6Motzl6B2yaUC9tVN_q-12" value="Job Executor" style="rounded=0;whiteSpace=wrap;html=1;" parent="1" vertex="1">
          <mxGeometry x="-170" y="460" width="200" height="40" as="geometry" />
        </mxCell>
        <mxCell id="P6Motzl6B2yaUC9tVN_q-13" value="Transfer" style="rounded=0;whiteSpace=wrap;html=1;" parent="1" vertex="1">
          <mxGeometry x="-170" y="500" width="200" height="40" as="geometry" />
        </mxCell>
        <mxCell id="P6Motzl6B2yaUC9tVN_q-14" value="Heartbeat" style="rounded=0;whiteSpace=wrap;html=1;" parent="1" vertex="1">
          <mxGeometry x="-170" y="620" width="200" height="40" as="geometry" />
        </mxCell>
        <mxCell id="P6Motzl6B2yaUC9tVN_q-15" value="Transfer" style="rounded=0;whiteSpace=wrap;html=1;" parent="1" vertex="1">
          <mxGeometry x="-170" y="660" width="200" height="40" as="geometry" />
        </mxCell>
        <mxCell id="P6Motzl6B2yaUC9tVN_q-19" style="edgeStyle=orthogonalEdgeStyle;rounded=1;jumpStyle=arc;orthogonalLoop=1;jettySize=auto;html=1;exitX=0.75;exitY=0;exitDx=0;exitDy=0;entryX=0.75;entryY=1;entryDx=0;entryDy=0;startArrow=classic;startFill=1;endArrow=classic;endFill=1;" parent="1" source="P6Motzl6B2yaUC9tVN_q-26" target="P6Motzl6B2yaUC9tVN_q-22" edge="1">
          <mxGeometry relative="1" as="geometry">
            <Array as="points" />
          </mxGeometry>
        </mxCell>
        <mxCell id="P6Motzl6B2yaUC9tVN_q-32" value="Artifact Transfer" style="edgeLabel;html=1;align=center;verticalAlign=middle;resizable=0;points=[];rotation=90;" parent="P6Motzl6B2yaUC9tVN_q-19" vertex="1" connectable="0">
          <mxGeometry x="0.3171" y="3" relative="1" as="geometry">
            <mxPoint y="22" as="offset" />
          </mxGeometry>
        </mxCell>
        <mxCell id="P6Motzl6B2yaUC9tVN_q-16" value="Job Executor" style="rounded=0;whiteSpace=wrap;html=1;" parent="1" vertex="1">
          <mxGeometry x="-170" y="700" width="200" height="40" as="geometry" />
        </mxCell>
        <mxCell id="P6Motzl6B2yaUC9tVN_q-20" value="ROUTER" style="rounded=1;whiteSpace=wrap;html=1;" parent="1" vertex="1">
          <mxGeometry x="-200" y="430" width="60" height="20" as="geometry" />
        </mxCell>
        <mxCell id="P6Motzl6B2yaUC9tVN_q-21" value="ROUTER" style="rounded=1;whiteSpace=wrap;html=1;" parent="1" vertex="1">
          <mxGeometry y="470" width="60" height="20" as="geometry" />
        </mxCell>
        <mxCell id="P6Motzl6B2yaUC9tVN_q-22" value="ROUTER" style="rounded=1;whiteSpace=wrap;html=1;" parent="1" vertex="1">
          <mxGeometry y="510" width="60" height="20" as="geometry" />
        </mxCell>
        <mxCell id="P6Motzl6B2yaUC9tVN_q-24" value="DEALER" style="rounded=1;whiteSpace=wrap;html=1;" parent="1" vertex="1">
          <mxGeometry x="-200" y="630" width="60" height="20" as="geometry" />
        </mxCell>
        <mxCell id="P6Motzl6B2yaUC9tVN_q-25" style="edgeStyle=orthogonalEdgeStyle;rounded=1;orthogonalLoop=1;jettySize=auto;html=1;entryX=0.25;entryY=0;entryDx=0;entryDy=0;jumpStyle=arc;exitX=0.25;exitY=1;exitDx=0;exitDy=0;startArrow=classic;startFill=1;" parent="1" source="P6Motzl6B2yaUC9tVN_q-20" target="P6Motzl6B2yaUC9tVN_q-24" edge="1">
          <mxGeometry relative="1" as="geometry">
            <mxPoint x="-185" y="330" as="sourcePoint" />
            <mxPoint x="-170" y="640" as="targetPoint" />
            <Array as="points" />
          </mxGeometry>
        </mxCell>
        <mxCell id="P6Motzl6B2yaUC9tVN_q-31" value="Monitoring" style="edgeLabel;html=1;align=center;verticalAlign=middle;resizable=0;points=[];rotation=90;" parent="P6Motzl6B2yaUC9tVN_q-25" vertex="1" connectable="0">
          <mxGeometry x="0.1756" y="-1" relative="1" as="geometry">
            <mxPoint as="offset" />
          </mxGeometry>
        </mxCell>
        <mxCell id="P6Motzl6B2yaUC9tVN_q-26" value="DEALER" style="rounded=1;whiteSpace=wrap;html=1;" parent="1" vertex="1">
          <mxGeometry y="670" width="60" height="20" as="geometry" />
        </mxCell>
        <mxCell id="P6Motzl6B2yaUC9tVN_q-27" value="DEALER" style="rounded=1;whiteSpace=wrap;html=1;" parent="1" vertex="1">
          <mxGeometry y="710" width="60" height="20" as="geometry" />
        </mxCell>
        <mxCell id="P6Motzl6B2yaUC9tVN_q-29" value="Server" style="text;html=1;strokeColor=none;fillColor=none;align=center;verticalAlign=middle;whiteSpace=wrap;rounded=0;" parent="1" vertex="1">
          <mxGeometry x="-170" y="400" width="40" height="20" as="geometry" />
        </mxCell>
        <mxCell id="P6Motzl6B2yaUC9tVN_q-30" value="Client(s)" style="text;html=1;strokeColor=none;fillColor=none;align=center;verticalAlign=middle;whiteSpace=wrap;rounded=0;rotation=0;" parent="1" vertex="1">
          <mxGeometry x="-170" y="600" width="50" height="20" as="geometry" />
        </mxCell>
        <mxCell id="kIGBe5cNXjvGODK9YtOb-47" style="edgeStyle=orthogonalEdgeStyle;rounded=1;orthogonalLoop=1;jettySize=auto;html=1;exitX=0.5;exitY=1;exitDx=0;exitDy=0;startArrow=none;startFill=0;endArrow=none;endFill=0;" edge="1" parent="1" source="P6Motzl6B2yaUC9tVN_q-34">
          <mxGeometry relative="1" as="geometry">
            <mxPoint x="360.16666666666697" y="830" as="targetPoint" />
          </mxGeometry>
        </mxCell>
        <mxCell id="P6Motzl6B2yaUC9tVN_q-34" value="Server" style="whiteSpace=wrap;html=1;aspect=fixed;" parent="1" vertex="1">
          <mxGeometry x="340" y="360" width="40" height="40" as="geometry" />
        </mxCell>
        <mxCell id="P6Motzl6B2yaUC9tVN_q-42" style="edgeStyle=orthogonalEdgeStyle;rounded=1;jumpStyle=arc;orthogonalLoop=1;jettySize=auto;html=1;exitX=0.5;exitY=1;exitDx=0;exitDy=0;startArrow=none;startFill=0;endArrow=none;endFill=0;" parent="1" source="P6Motzl6B2yaUC9tVN_q-36" edge="1">
          <mxGeometry relative="1" as="geometry">
            <mxPoint x="510" y="510" as="targetPoint" />
            <mxPoint x="510" y="440" as="sourcePoint" />
          </mxGeometry>
        </mxCell>
        <mxCell id="P6Motzl6B2yaUC9tVN_q-36" value="Heartbeat" style="rounded=0;whiteSpace=wrap;html=1;" parent="1" vertex="1">
          <mxGeometry x="460" y="430" width="100" height="20" as="geometry" />
        </mxCell>
        <mxCell id="P6Motzl6B2yaUC9tVN_q-43" style="edgeStyle=orthogonalEdgeStyle;rounded=1;jumpStyle=arc;orthogonalLoop=1;jettySize=auto;html=1;exitX=0.5;exitY=1;exitDx=0;exitDy=0;startArrow=none;startFill=0;endArrow=none;endFill=0;" parent="1" source="P6Motzl6B2yaUC9tVN_q-37" edge="1">
          <mxGeometry relative="1" as="geometry">
            <mxPoint x="710" y="670" as="targetPoint" />
          </mxGeometry>
        </mxCell>
        <mxCell id="P6Motzl6B2yaUC9tVN_q-37" value="Job Executor" style="rounded=0;whiteSpace=wrap;html=1;" parent="1" vertex="1">
          <mxGeometry x="660" y="430" width="100" height="20" as="geometry" />
        </mxCell>
        <mxCell id="P6Motzl6B2yaUC9tVN_q-44" style="edgeStyle=orthogonalEdgeStyle;rounded=1;jumpStyle=arc;orthogonalLoop=1;jettySize=auto;html=1;exitX=0.5;exitY=1;exitDx=0;exitDy=0;startArrow=none;startFill=0;endArrow=none;endFill=0;" parent="1" source="P6Motzl6B2yaUC9tVN_q-38" edge="1">
          <mxGeometry relative="1" as="geometry">
            <mxPoint x="910" y="830" as="targetPoint" />
          </mxGeometry>
        </mxCell>
        <mxCell id="P6Motzl6B2yaUC9tVN_q-38" value="Transfer" style="rounded=0;whiteSpace=wrap;html=1;" parent="1" vertex="1">
          <mxGeometry x="860" y="430" width="100" height="20" as="geometry" />
        </mxCell>
        <mxCell id="P6Motzl6B2yaUC9tVN_q-39" style="edgeStyle=orthogonalEdgeStyle;rounded=1;jumpStyle=arc;orthogonalLoop=1;jettySize=auto;html=1;exitX=0.5;exitY=1;exitDx=0;exitDy=0;startArrow=classic;startFill=1;endArrow=classic;endFill=1;" parent="1" source="P6Motzl6B2yaUC9tVN_q-34" target="P6Motzl6B2yaUC9tVN_q-34" edge="1">
          <mxGeometry relative="1" as="geometry" />
        </mxCell>
        <mxCell id="P6Motzl6B2yaUC9tVN_q-45" value="" style="endArrow=classic;html=1;endFill=1;jumpStyle=arc;startArrow=none;startFill=0;" parent="1" edge="1">
          <mxGeometry width="50" height="50" relative="1" as="geometry">
            <mxPoint x="360" y="469.17" as="sourcePoint" />
            <mxPoint x="510" y="469" as="targetPoint" />
          </mxGeometry>
        </mxCell>
        <mxCell id="P6Motzl6B2yaUC9tVN_q-47" value="SEND" style="edgeLabel;html=1;align=center;verticalAlign=middle;resizable=0;points=[];" parent="P6Motzl6B2yaUC9tVN_q-45" vertex="1" connectable="0">
          <mxGeometry x="-0.1817" relative="1" as="geometry">
            <mxPoint x="-12" y="1" as="offset" />
          </mxGeometry>
        </mxCell>
        <mxCell id="P6Motzl6B2yaUC9tVN_q-48" value="" style="endArrow=oval;html=1;endFill=1;startArrow=classic;startFill=1;jumpStyle=arc;" parent="1" edge="1">
          <mxGeometry width="50" height="50" relative="1" as="geometry">
            <mxPoint x="360" y="509" as="sourcePoint" />
            <mxPoint x="510" y="509" as="targetPoint" />
          </mxGeometry>
        </mxCell>
        <mxCell id="P6Motzl6B2yaUC9tVN_q-49" value="RECV" style="edgeLabel;html=1;align=center;verticalAlign=middle;resizable=0;points=[];" parent="P6Motzl6B2yaUC9tVN_q-48" vertex="1" connectable="0">
          <mxGeometry x="-0.1817" relative="1" as="geometry">
            <mxPoint x="-12" y="1" as="offset" />
          </mxGeometry>
        </mxCell>
        <mxCell id="P6Motzl6B2yaUC9tVN_q-50" value="" style="endArrow=classic;html=1;endFill=1;jumpStyle=arc;startArrow=none;startFill=0;exitX=1;exitY=0.5;exitDx=0;exitDy=0;" parent="1" edge="1" source="kIGBe5cNXjvGODK9YtOb-41">
          <mxGeometry width="50" height="50" relative="1" as="geometry">
            <mxPoint x="360" y="560" as="sourcePoint" />
            <mxPoint x="710" y="560" as="targetPoint" />
            <Array as="points">
              <mxPoint x="350" y="560" />
              <mxPoint x="520" y="560" />
            </Array>
          </mxGeometry>
        </mxCell>
        <mxCell id="P6Motzl6B2yaUC9tVN_q-51" value="SEND" style="edgeLabel;html=1;align=center;verticalAlign=middle;resizable=0;points=[];" parent="P6Motzl6B2yaUC9tVN_q-50" vertex="1" connectable="0">
          <mxGeometry x="-0.1817" relative="1" as="geometry">
            <mxPoint x="-93" as="offset" />
          </mxGeometry>
        </mxCell>
        <mxCell id="P6Motzl6B2yaUC9tVN_q-52" value="" style="endArrow=oval;html=1;endFill=1;startArrow=classic;startFill=1;jumpStyle=arc;exitX=1;exitY=0.5;exitDx=0;exitDy=0;" parent="1" edge="1" source="P6Motzl6B2yaUC9tVN_q-71">
          <mxGeometry width="50" height="50" relative="1" as="geometry">
            <mxPoint x="270" y="670" as="sourcePoint" />
            <mxPoint x="710" y="670" as="targetPoint" />
          </mxGeometry>
        </mxCell>
        <mxCell id="P6Motzl6B2yaUC9tVN_q-53" value="RECV" style="edgeLabel;html=1;align=center;verticalAlign=middle;resizable=0;points=[];" parent="P6Motzl6B2yaUC9tVN_q-52" vertex="1" connectable="0">
          <mxGeometry x="-0.1817" relative="1" as="geometry">
            <mxPoint x="-25" as="offset" />
          </mxGeometry>
        </mxCell>
        <mxCell id="P6Motzl6B2yaUC9tVN_q-64" style="edgeStyle=orthogonalEdgeStyle;rounded=1;jumpStyle=arc;orthogonalLoop=1;jettySize=auto;html=1;exitX=0.1;exitY=0.5;exitDx=0;exitDy=0;exitPerimeter=0;entryX=0;entryY=0.5;entryDx=0;entryDy=0;startArrow=none;startFill=0;endArrow=classic;endFill=1;" parent="1" source="P6Motzl6B2yaUC9tVN_q-54" target="P6Motzl6B2yaUC9tVN_q-60" edge="1">
          <mxGeometry relative="1" as="geometry">
            <mxPoint x="738" y="615.58" as="sourcePoint" />
            <mxPoint x="790" y="615.58" as="targetPoint" />
          </mxGeometry>
        </mxCell>
        <mxCell id="P6Motzl6B2yaUC9tVN_q-54" value="" style="shape=curlyBracket;whiteSpace=wrap;html=1;rounded=1;direction=west;size=0.5;" parent="1" vertex="1">
          <mxGeometry x="720" y="560" width="20" height="110" as="geometry" />
        </mxCell>
        <mxCell id="P6Motzl6B2yaUC9tVN_q-55" value="" style="endArrow=classic;html=1;endFill=1;jumpStyle=arc;startArrow=none;startFill=0;" parent="1" edge="1">
          <mxGeometry width="50" height="50" relative="1" as="geometry">
            <mxPoint x="360" y="750" as="sourcePoint" />
            <mxPoint x="910" y="750" as="targetPoint" />
          </mxGeometry>
        </mxCell>
        <mxCell id="P6Motzl6B2yaUC9tVN_q-56" value="SEND" style="edgeLabel;html=1;align=center;verticalAlign=middle;resizable=0;points=[];" parent="P6Motzl6B2yaUC9tVN_q-55" vertex="1" connectable="0">
          <mxGeometry x="-0.1817" relative="1" as="geometry">
            <mxPoint x="-175" as="offset" />
          </mxGeometry>
        </mxCell>
        <mxCell id="P6Motzl6B2yaUC9tVN_q-57" value="" style="endArrow=oval;html=1;endFill=1;startArrow=classic;startFill=1;jumpStyle=arc;" parent="1" edge="1">
          <mxGeometry width="50" height="50" relative="1" as="geometry">
            <mxPoint x="360" y="830" as="sourcePoint" />
            <mxPoint x="910" y="830" as="targetPoint" />
          </mxGeometry>
        </mxCell>
        <mxCell id="P6Motzl6B2yaUC9tVN_q-58" value="RECV" style="edgeLabel;html=1;align=center;verticalAlign=middle;resizable=0;points=[];" parent="P6Motzl6B2yaUC9tVN_q-57" vertex="1" connectable="0">
          <mxGeometry x="-0.1817" relative="1" as="geometry">
            <mxPoint x="-175" as="offset" />
          </mxGeometry>
        </mxCell>
        <mxCell id="P6Motzl6B2yaUC9tVN_q-62" style="edgeStyle=orthogonalEdgeStyle;rounded=1;jumpStyle=arc;orthogonalLoop=1;jettySize=auto;html=1;exitX=0.5;exitY=1;exitDx=0;exitDy=0;entryX=0.5;entryY=0;entryDx=0;entryDy=0;startArrow=oval;startFill=1;endArrow=classic;endFill=1;" parent="1" source="P6Motzl6B2yaUC9tVN_q-60" edge="1" target="P6Motzl6B2yaUC9tVN_q-79">
          <mxGeometry relative="1" as="geometry">
            <mxPoint x="810" y="670" as="targetPoint" />
            <mxPoint x="810" y="650" as="sourcePoint" />
          </mxGeometry>
        </mxCell>
        <mxCell id="P6Motzl6B2yaUC9tVN_q-63" style="edgeStyle=orthogonalEdgeStyle;rounded=1;jumpStyle=arc;orthogonalLoop=1;jettySize=auto;html=1;exitX=0.5;exitY=0;exitDx=0;exitDy=0;startArrow=oval;startFill=1;endArrow=classic;endFill=1;entryX=0.5;entryY=1;entryDx=0;entryDy=0;" parent="1" source="P6Motzl6B2yaUC9tVN_q-60" edge="1" target="P6Motzl6B2yaUC9tVN_q-80">
          <mxGeometry relative="1" as="geometry">
            <mxPoint x="810" y="570" as="targetPoint" />
          </mxGeometry>
        </mxCell>
        <mxCell id="P6Motzl6B2yaUC9tVN_q-60" value="OR" style="ellipse;whiteSpace=wrap;html=1;aspect=fixed;" parent="1" vertex="1">
          <mxGeometry x="790" y="595" width="40" height="40" as="geometry" />
        </mxCell>
        <mxCell id="P6Motzl6B2yaUC9tVN_q-76" style="edgeStyle=orthogonalEdgeStyle;rounded=1;jumpStyle=arc;orthogonalLoop=1;jettySize=auto;html=1;exitX=0.1;exitY=0.5;exitDx=0;exitDy=0;exitPerimeter=0;entryX=1;entryY=0.5;entryDx=0;entryDy=0;startArrow=none;startFill=0;endArrow=classic;endFill=1;" parent="1" source="P6Motzl6B2yaUC9tVN_q-66" target="P6Motzl6B2yaUC9tVN_q-70" edge="1">
          <mxGeometry relative="1" as="geometry" />
        </mxCell>
        <mxCell id="P6Motzl6B2yaUC9tVN_q-66" value="" style="shape=curlyBracket;whiteSpace=wrap;html=1;rounded=1;" parent="1" vertex="1">
          <mxGeometry x="330" y="750" width="20" height="80" as="geometry" />
        </mxCell>
        <mxCell id="P6Motzl6B2yaUC9tVN_q-68" value="Reporting" style="rounded=1;whiteSpace=wrap;html=1;" parent="1" vertex="1">
          <mxGeometry x="180" y="610" width="100" height="20" as="geometry" />
        </mxCell>
        <mxCell id="P6Motzl6B2yaUC9tVN_q-75" style="edgeStyle=orthogonalEdgeStyle;rounded=1;jumpStyle=arc;orthogonalLoop=1;jettySize=auto;html=1;exitX=1;exitY=0.5;exitDx=0;exitDy=0;startArrow=oval;startFill=1;endArrow=none;endFill=0;" parent="1" source="P6Motzl6B2yaUC9tVN_q-69" edge="1">
          <mxGeometry relative="1" as="geometry">
            <mxPoint x="350" y="750" as="targetPoint" />
            <Array as="points">
              <mxPoint x="340" y="720" />
              <mxPoint x="340" y="750" />
            </Array>
          </mxGeometry>
        </mxCell>
        <mxCell id="kIGBe5cNXjvGODK9YtOb-36" value="" style="edgeStyle=orthogonalEdgeStyle;rounded=0;orthogonalLoop=1;jettySize=auto;html=1;startArrow=classic;startFill=1;endArrow=oval;endFill=1;" edge="1" parent="1" source="P6Motzl6B2yaUC9tVN_q-69" target="P6Motzl6B2yaUC9tVN_q-70">
          <mxGeometry relative="1" as="geometry" />
        </mxCell>
        <mxCell id="P6Motzl6B2yaUC9tVN_q-69" value="Send Transfer" style="rounded=1;whiteSpace=wrap;html=1;" parent="1" vertex="1">
          <mxGeometry x="180" y="710" width="100" height="20" as="geometry" />
        </mxCell>
        <mxCell id="P6Motzl6B2yaUC9tVN_q-70" value="Reporting" style="rounded=1;whiteSpace=wrap;html=1;" parent="1" vertex="1">
          <mxGeometry x="180" y="778.75" width="100" height="22.5" as="geometry" />
        </mxCell>
        <mxCell id="P6Motzl6B2yaUC9tVN_q-71" value="OR" style="ellipse;whiteSpace=wrap;html=1;aspect=fixed;" parent="1" vertex="1">
          <mxGeometry x="215" y="655" width="30" height="30" as="geometry" />
        </mxCell>
        <mxCell id="P6Motzl6B2yaUC9tVN_q-77" value="" style="shape=curlyBracket;whiteSpace=wrap;html=1;rounded=1;" parent="1" vertex="1">
          <mxGeometry x="330" y="470" width="20" height="40" as="geometry" />
        </mxCell>
        <mxCell id="P6Motzl6B2yaUC9tVN_q-79" value="Request Transfer" style="rounded=1;whiteSpace=wrap;html=1;" parent="1" vertex="1">
          <mxGeometry x="760" y="660" width="100" height="20" as="geometry" />
        </mxCell>
        <mxCell id="P6Motzl6B2yaUC9tVN_q-80" value="Job Process" style="rounded=1;whiteSpace=wrap;html=1;" parent="1" vertex="1">
          <mxGeometry x="760" y="550" width="100" height="20" as="geometry" />
        </mxCell>
        <mxCell id="P6Motzl6B2yaUC9tVN_q-88" style="edgeStyle=orthogonalEdgeStyle;rounded=1;jumpStyle=arc;orthogonalLoop=1;jettySize=auto;html=1;exitX=0.1;exitY=0.5;exitDx=0;exitDy=0;exitPerimeter=0;entryX=0;entryY=0.5;entryDx=0;entryDy=0;startArrow=classic;startFill=1;endArrow=classic;endFill=1;" parent="1" source="P6Motzl6B2yaUC9tVN_q-82" target="P6Motzl6B2yaUC9tVN_q-85" edge="1">
          <mxGeometry relative="1" as="geometry" />
        </mxCell>
        <mxCell id="P6Motzl6B2yaUC9tVN_q-82" value="" style="shape=curlyBracket;whiteSpace=wrap;html=1;rounded=1;direction=west;size=0.5;" parent="1" vertex="1">
          <mxGeometry x="920" y="750" width="20" height="80" as="geometry" />
        </mxCell>
        <mxCell id="P6Motzl6B2yaUC9tVN_q-83" style="edgeStyle=orthogonalEdgeStyle;rounded=1;jumpStyle=arc;orthogonalLoop=1;jettySize=auto;html=1;exitX=0.5;exitY=1;exitDx=0;exitDy=0;entryX=0.5;entryY=0;entryDx=0;entryDy=0;startArrow=oval;startFill=1;endArrow=classic;endFill=1;" parent="1" source="P6Motzl6B2yaUC9tVN_q-85" edge="1" target="P6Motzl6B2yaUC9tVN_q-86">
          <mxGeometry relative="1" as="geometry">
            <mxPoint x="1010" y="830" as="targetPoint" />
          </mxGeometry>
        </mxCell>
        <mxCell id="P6Motzl6B2yaUC9tVN_q-84" style="edgeStyle=orthogonalEdgeStyle;rounded=1;jumpStyle=arc;orthogonalLoop=1;jettySize=auto;html=1;exitX=0.5;exitY=0;exitDx=0;exitDy=0;startArrow=oval;startFill=1;endArrow=classic;endFill=1;entryX=0.5;entryY=1;entryDx=0;entryDy=0;" parent="1" source="P6Motzl6B2yaUC9tVN_q-85" edge="1" target="P6Motzl6B2yaUC9tVN_q-87">
          <mxGeometry relative="1" as="geometry">
            <mxPoint x="1010" y="750" as="targetPoint" />
          </mxGeometry>
        </mxCell>
        <mxCell id="P6Motzl6B2yaUC9tVN_q-85" value="OR" style="ellipse;whiteSpace=wrap;html=1;aspect=fixed;" parent="1" vertex="1">
          <mxGeometry x="990" y="770" width="40" height="40" as="geometry" />
        </mxCell>
        <mxCell id="P6Motzl6B2yaUC9tVN_q-86" value="ACK Complete" style="rounded=1;whiteSpace=wrap;html=1;" parent="1" vertex="1">
          <mxGeometry x="960" y="840" width="100" height="20" as="geometry" />
        </mxCell>
        <mxCell id="P6Motzl6B2yaUC9tVN_q-87" value="Request Chunk" style="rounded=1;whiteSpace=wrap;html=1;" parent="1" vertex="1">
          <mxGeometry x="960" y="720" width="100" height="20" as="geometry" />
        </mxCell>
        <mxCell id="kIGBe5cNXjvGODK9YtOb-1" value="" style="shape=curlyBracket;whiteSpace=wrap;html=1;rounded=1;flipH=1;direction=south;" vertex="1" parent="1">
          <mxGeometry x="510" y="405" width="400" height="20" as="geometry" />
        </mxCell>
        <mxCell id="kIGBe5cNXjvGODK9YtOb-2" value="Client" style="whiteSpace=wrap;html=1;aspect=fixed;" vertex="1" parent="1">
          <mxGeometry x="690" y="360" width="40" height="40" as="geometry" />
        </mxCell>
        <mxCell id="kIGBe5cNXjvGODK9YtOb-30" value="Reporting" style="rounded=1;whiteSpace=wrap;html=1;" vertex="1" parent="1">
          <mxGeometry x="180" y="430" width="100" height="20" as="geometry" />
        </mxCell>
        <mxCell id="kIGBe5cNXjvGODK9YtOb-31" value="Cluster State" style="rounded=1;whiteSpace=wrap;html=1;" vertex="1" parent="1">
          <mxGeometry x="180" y="530" width="100" height="20" as="geometry" />
        </mxCell>
        <mxCell id="kIGBe5cNXjvGODK9YtOb-34" value="AND" style="ellipse;whiteSpace=wrap;html=1;aspect=fixed;" vertex="1" parent="1">
          <mxGeometry x="215" y="475" width="30" height="30" as="geometry" />
        </mxCell>
        <mxCell id="kIGBe5cNXjvGODK9YtOb-39" value="Job Defined" style="rounded=1;whiteSpace=wrap;html=1;" vertex="1" parent="1">
          <mxGeometry x="180" y="570" width="100" height="20" as="geometry" />
        </mxCell>
        <mxCell id="kIGBe5cNXjvGODK9YtOb-40" value="" style="shape=curlyBracket;whiteSpace=wrap;html=1;rounded=1;flipH=1;" vertex="1" parent="1">
          <mxGeometry x="280" y="540" width="20" height="40" as="geometry" />
        </mxCell>
        <mxCell id="kIGBe5cNXjvGODK9YtOb-48" style="edgeStyle=orthogonalEdgeStyle;rounded=1;orthogonalLoop=1;jettySize=auto;html=1;exitX=0;exitY=0.5;exitDx=0;exitDy=0;entryX=0.1;entryY=0.5;entryDx=0;entryDy=0;entryPerimeter=0;startArrow=none;startFill=0;endArrow=none;endFill=0;" edge="1" parent="1" source="kIGBe5cNXjvGODK9YtOb-41" target="kIGBe5cNXjvGODK9YtOb-40">
          <mxGeometry relative="1" as="geometry" />
        </mxCell>
        <mxCell id="kIGBe5cNXjvGODK9YtOb-41" value="AND" style="ellipse;whiteSpace=wrap;html=1;aspect=fixed;" vertex="1" parent="1">
          <mxGeometry x="310" y="545" width="30" height="30" as="geometry" />
        </mxCell>
      </root>
    </mxGraphModel>
  </diagram>
</mxfile>
